<?xml version="1.0" encoding="utf-8"?>
<!-- Generator: Adobe Illustrator 16.0.0, SVG Export Plug-In . SVG Version: 6.00 Build 0)  -->
<!DOCTYPE svg PUBLIC "-//W3C//DTD SVG 1.1//EN" "http://www.w3.org/Graphics/SVG/1.1/DTD/svg11.dtd">
<svg version="1.1" id="Layer_1" xmlns="http://www.w3.org/2000/svg" xmlns:xlink="http://www.w3.org/1999/xlink" x="0px" y="0px"
	 width="864px" height="864px" viewBox="0 0 864 864" enable-background="new 0 0 864 864" xml:space="preserve">
<path fill="#54C2BA" d="M225,198.718v414.001h414V198.718H225z M297.117,441.24c-1.169,15.08-13.234,27.146-28.314,28.314
	C269.972,454.475,282.037,442.41,297.117,441.24z M266.4,459.42c-3.593-9.459-11.123-16.988-20.581-20.582
	c9.458-3.594,16.988-11.124,20.581-20.582c3.593,9.458,11.123,16.988,20.582,20.582C277.523,442.432,269.993,449.961,266.4,459.42z
	 M268.803,408.121c15.081,1.17,27.145,13.234,28.314,28.315C282.037,435.266,269.972,423.201,268.803,408.121z M268.802,403.316
	c1.17-15.082,13.234-27.146,28.315-28.316C295.948,390.082,283.883,402.146,268.802,403.316z M278.938,405.718
	c9.458-3.594,16.989-11.123,20.582-20.582c3.593,9.459,11.123,16.988,20.582,20.582c-9.458,3.592-16.989,11.123-20.582,20.581
	C295.927,416.841,288.397,409.31,278.938,405.718z M353.221,372.598c-9.457,3.593-16.988,11.123-20.58,20.582
	c-3.594-9.459-11.124-16.989-20.582-20.582c9.458-3.593,16.988-11.123,20.582-20.581
	C336.232,361.475,343.764,369.005,353.221,372.598z M335.043,341.88c15.08,1.169,27.145,13.234,28.314,28.315
	C348.276,369.025,336.213,356.961,335.043,341.88z M363.357,375c-1.17,15.082-13.234,27.146-28.314,28.316
	C336.213,388.234,348.276,376.17,363.357,375z M301.922,370.195c1.17-15.081,13.234-27.146,28.316-28.315
	C329.068,356.961,317.003,369.025,301.922,370.195z M330.238,403.316c-15.082-1.17-27.146-13.234-28.316-28.316
	C317.003,376.17,329.068,388.234,330.238,403.316z M330.236,408.121c-1.168,15.08-13.233,27.145-28.313,28.315
	C303.092,421.355,315.156,409.291,330.236,408.121z M330.236,469.555c-15.08-1.168-27.144-13.234-28.313-28.314
	C317.003,442.41,329.068,454.475,330.236,469.555z M312.059,438.838c9.458-3.594,16.988-11.124,20.582-20.582
	c3.592,9.458,11.123,16.988,20.58,20.582c-9.457,3.594-16.988,11.123-20.58,20.582C329.047,449.961,321.517,442.432,312.059,438.838
	z M363.357,441.24c-1.17,15.08-13.234,27.146-28.314,28.314C336.213,454.475,348.276,442.41,363.357,441.24z M335.043,408.121
	c15.08,1.17,27.145,13.234,28.314,28.315C348.276,435.266,336.213,423.201,335.043,408.121z M345.179,405.718
	c9.458-3.594,16.988-11.123,20.581-20.582c3.593,9.459,11.123,16.988,20.582,20.582c-9.459,3.592-16.989,11.123-20.582,20.581
	C362.167,416.841,354.637,409.31,345.179,405.718z M419.461,372.598c-9.458,3.593-16.988,11.123-20.581,20.582
	c-3.593-9.459-11.123-16.989-20.581-20.582c9.458-3.593,16.988-11.123,20.581-20.581
	C402.473,361.475,410.003,369.005,419.461,372.598z M401.282,341.88c15.081,1.169,27.146,13.234,28.315,28.315
	C414.517,369.025,402.452,356.961,401.282,341.88z M429.598,375c-1.17,15.082-13.234,27.146-28.315,28.316
	C402.452,388.234,414.517,376.17,429.598,375z M368.162,370.195c1.17-15.081,13.234-27.146,28.315-28.315
	C395.308,356.961,383.244,369.025,368.162,370.195z M396.478,403.316c-15.081-1.17-27.146-13.234-28.315-28.316
	C383.244,376.17,395.308,388.234,396.478,403.316z M396.477,408.121c-1.169,15.08-13.232,27.145-28.313,28.315
	C369.332,421.355,381.396,409.291,396.477,408.121z M396.477,469.555c-15.08-1.168-27.145-13.234-28.313-28.314
	C383.244,442.41,395.308,454.475,396.477,469.555z M378.299,438.838c9.458-3.594,16.988-11.124,20.581-20.582
	c3.593,9.458,11.123,16.988,20.581,20.582c-9.458,3.594-16.988,11.123-20.581,20.582
	C395.287,449.961,387.757,442.432,378.299,438.838z M429.598,441.24c-1.17,15.08-13.234,27.146-28.314,28.314
	C402.452,454.475,414.517,442.41,429.598,441.24z M401.283,408.121c15.08,1.17,27.145,13.234,28.314,28.315
	C414.517,435.266,402.452,423.201,401.283,408.121z M411.419,405.718c9.458-3.594,16.988-11.123,20.581-20.582
	c3.593,9.459,11.123,16.988,20.582,20.582c-9.459,3.592-16.989,11.123-20.582,20.581
	C428.407,416.841,420.877,409.31,411.419,405.718z M485.701,372.598c-9.458,3.593-16.988,11.123-20.581,20.582
	c-3.593-9.459-11.123-16.989-20.581-20.582c9.458-3.593,16.988-11.123,20.581-20.581
	C468.713,361.475,476.243,369.005,485.701,372.598z M467.522,341.881c15.08,1.169,27.146,13.233,28.314,28.314
	C480.757,369.025,468.692,356.961,467.522,341.881z M495.837,375.001c-1.169,15.081-13.234,27.145-28.314,28.314
	C468.692,388.234,480.757,376.17,495.837,375.001z M434.402,370.195c1.17-15.081,13.234-27.146,28.315-28.315
	C461.548,356.961,449.483,369.025,434.402,370.195z M462.718,403.316c-15.081-1.17-27.146-13.234-28.315-28.316
	C449.483,376.17,461.548,388.234,462.718,403.316z M462.718,408.121c-1.17,15.08-13.234,27.145-28.315,28.315
	C435.572,421.355,447.637,409.291,462.718,408.121z M462.718,469.555c-15.081-1.168-27.146-13.234-28.315-28.314
	C449.483,442.41,461.548,454.475,462.718,469.555z M444.539,438.838c9.458-3.594,16.988-11.124,20.581-20.582
	c3.593,9.458,11.123,16.988,20.581,20.582c-9.458,3.594-16.988,11.123-20.581,20.582
	C461.527,449.961,453.997,442.432,444.539,438.838z M495.837,441.24c-1.169,15.08-13.234,27.146-28.314,28.314
	C468.692,454.475,480.757,442.41,495.837,441.24z M467.522,408.121c15.08,1.17,27.146,13.234,28.314,28.315
	C480.757,435.266,468.692,423.201,467.522,408.121z M477.658,405.718c9.459-3.594,16.988-11.123,20.582-20.582
	c3.593,9.459,11.123,16.988,20.581,20.582c-9.458,3.592-16.988,11.123-20.581,20.581
	C494.646,416.841,487.117,409.31,477.658,405.718z M551.941,372.598c-9.459,3.593-16.988,11.123-20.581,20.582
	c-3.594-9.459-11.123-16.989-20.582-20.582c9.459-3.593,16.988-11.123,20.582-20.581
	C534.953,361.475,542.482,369.005,551.941,372.598z M533.763,341.881c15.08,1.169,27.146,13.233,28.314,28.314
	C546.997,369.025,534.933,356.961,533.763,341.881z M562.077,375.001c-1.169,15.081-13.234,27.145-28.314,28.314
	C534.933,388.234,546.997,376.17,562.077,375.001z M500.643,370.195c1.17-15.081,13.234-27.145,28.314-28.314
	C527.788,356.961,515.723,369.025,500.643,370.195z M528.957,403.315c-15.08-1.169-27.145-13.233-28.314-28.314
	C515.723,376.17,527.788,388.234,528.957,403.315z M528.957,408.121c-1.169,15.08-13.234,27.145-28.314,28.315
	C501.813,421.355,513.877,409.291,528.957,408.121z M528.957,469.555c-15.08-1.168-27.145-13.234-28.314-28.314
	C515.723,442.41,527.788,454.475,528.957,469.555z M510.778,438.838c9.458-3.594,16.988-11.124,20.582-20.582
	c3.593,9.458,11.123,16.988,20.581,20.582c-9.458,3.594-16.988,11.123-20.581,20.582
	C527.767,449.961,520.236,442.432,510.778,438.838z M562.077,441.24c-1.169,15.08-13.234,27.146-28.314,28.314
	C534.933,454.475,546.997,442.41,562.077,441.24z M533.763,408.121c15.08,1.17,27.146,13.234,28.314,28.315
	C546.997,435.266,534.933,423.201,533.763,408.121z M543.898,405.718c9.459-3.594,16.988-11.123,20.582-20.582
	c3.593,9.459,11.123,16.988,20.581,20.582c-9.458,3.592-16.988,11.123-20.581,20.581
	C560.887,416.841,553.357,409.31,543.898,405.718z M595.197,408.121c-1.17,15.08-13.234,27.145-28.314,28.315
	C568.053,421.355,580.117,409.291,595.197,408.121z M566.883,375.001c15.08,1.169,27.145,13.233,28.314,28.314
	C580.117,402.146,568.053,390.082,566.883,375.001z M577.019,372.598c9.459-3.593,16.988-11.123,20.581-20.581
	c3.594,9.458,11.123,16.988,20.582,20.581c-9.459,3.593-16.988,11.123-20.582,20.582C594.007,383.72,586.478,376.19,577.019,372.598
	z M566.883,370.195c1.17-15.081,13.234-27.145,28.314-28.314C594.027,356.961,581.963,369.025,566.883,370.195z M577.019,306.358
	c9.459-3.593,16.988-11.123,20.581-20.582c3.594,9.458,11.123,16.989,20.582,20.582c-9.459,3.593-16.988,11.123-20.582,20.581
	C594.007,317.481,586.478,309.951,577.019,306.358z M566.883,303.955c1.17-15.081,13.234-27.145,28.314-28.314
	C594.027,290.721,581.963,302.786,566.883,303.955z M595.197,337.075c-15.08-1.169-27.145-13.233-28.314-28.314
	C581.963,309.93,594.027,321.994,595.197,337.075z M585.062,339.478c-9.459,3.593-16.988,11.123-20.581,20.582
	c-3.594-9.458-11.123-16.989-20.582-20.582c9.459-3.593,16.988-11.123,20.582-20.581
	C568.073,328.354,575.603,335.885,585.062,339.478z M533.763,337.075c1.17-15.081,13.234-27.145,28.314-28.314
	C560.908,323.841,548.843,335.905,533.763,337.075z M533.763,275.641c15.08,1.169,27.146,13.233,28.314,28.314
	C546.997,302.786,534.933,290.721,533.763,275.641z M531.36,260.699c-3.594-9.458-11.123-16.989-20.582-20.582
	c9.459-3.593,16.988-11.123,20.582-20.581c3.593,9.458,11.122,16.988,20.581,20.581C542.482,243.71,534.953,251.241,531.36,260.699z
	 M562.077,242.521c-1.169,15.081-13.234,27.145-28.314,28.314C534.933,255.754,546.997,243.69,562.077,242.521z M551.941,306.358
	c-9.459,3.593-16.988,11.123-20.581,20.581c-3.594-9.458-11.123-16.988-20.582-20.581c9.459-3.593,16.988-11.123,20.582-20.582
	C534.953,295.235,542.482,302.765,551.941,306.358z M500.643,303.955c1.17-15.081,13.234-27.145,28.314-28.314
	C527.788,290.721,515.723,302.786,500.643,303.955z M528.957,337.075c-15.08-1.169-27.145-13.233-28.314-28.314
	C515.723,309.93,527.788,321.994,528.957,337.075z M518.821,339.478c-9.458,3.593-16.988,11.123-20.581,20.582
	c-3.594-9.458-11.123-16.989-20.582-20.582c9.459-3.593,16.988-11.123,20.582-20.581
	C501.833,328.354,509.363,335.885,518.821,339.478z M467.522,337.075c1.17-15.081,13.234-27.145,28.314-28.314
	C494.668,323.841,482.603,335.905,467.522,337.075z M467.522,275.641c15.08,1.169,27.146,13.233,28.314,28.314
	C480.757,302.786,468.692,290.721,467.522,275.641z M465.12,260.699c-3.593-9.458-11.123-16.989-20.581-20.582
	c9.458-3.593,16.988-11.123,20.581-20.581c3.593,9.458,11.123,16.988,20.581,20.581C476.243,243.71,468.713,251.241,465.12,260.699z
	 M495.837,242.521c-1.169,15.081-13.234,27.145-28.314,28.314C468.692,255.754,480.757,243.69,495.837,242.521z M485.701,306.358
	c-9.458,3.593-16.988,11.123-20.581,20.581c-3.593-9.458-11.123-16.988-20.581-20.581c9.458-3.593,16.988-11.123,20.581-20.582
	C468.713,295.235,476.243,302.765,485.701,306.358z M434.402,303.956c1.17-15.082,13.234-27.146,28.315-28.315
	C461.548,290.721,449.483,302.786,434.402,303.956z M462.718,337.075c-15.081-1.17-27.146-13.234-28.315-28.315
	C449.483,309.93,461.548,321.994,462.718,337.075z M452.582,339.478c-9.459,3.593-16.989,11.123-20.582,20.582
	c-3.593-9.458-11.123-16.989-20.581-20.582c9.458-3.593,16.988-11.123,20.581-20.581
	C435.593,328.354,443.123,335.885,452.582,339.478z M401.282,337.075c1.17-15.081,13.234-27.145,28.315-28.315
	C428.428,323.841,416.363,335.905,401.282,337.075z M401.282,275.64c15.081,1.17,27.146,13.234,28.315,28.315
	C414.517,302.786,402.452,290.721,401.282,275.64z M398.88,260.699c-3.593-9.458-11.123-16.989-20.581-20.582
	c9.458-3.593,16.988-11.123,20.581-20.581c3.593,9.458,11.123,16.988,20.581,20.581C410.003,243.71,402.473,251.241,398.88,260.699z
	 M429.598,242.52c-1.17,15.081-13.234,27.146-28.315,28.315C402.452,255.754,414.517,243.69,429.598,242.52z M419.461,306.358
	c-9.458,3.593-16.988,11.123-20.581,20.581c-3.593-9.458-11.123-16.988-20.581-20.581c9.458-3.593,16.988-11.123,20.581-20.582
	C402.473,295.235,410.003,302.765,419.461,306.358z M368.162,303.956c1.17-15.082,13.234-27.146,28.315-28.315
	C395.308,290.721,383.244,302.786,368.162,303.956z M396.478,337.075c-15.081-1.17-27.146-13.234-28.315-28.315
	C383.244,309.93,395.308,321.994,396.478,337.075z M386.342,339.478c-9.459,3.593-16.989,11.123-20.582,20.582
	c-3.593-9.458-11.123-16.989-20.581-20.582c9.458-3.593,16.988-11.123,20.581-20.581
	C369.353,328.354,376.883,335.885,386.342,339.478z M335.043,337.075c1.17-15.081,13.233-27.145,28.314-28.315
	C362.188,323.841,350.123,335.905,335.043,337.075z M335.043,275.64c15.08,1.17,27.145,13.234,28.314,28.315
	C348.276,302.786,336.213,290.721,335.043,275.64z M332.641,260.699c-3.594-9.458-11.124-16.989-20.582-20.582
	c9.458-3.593,16.988-11.123,20.582-20.581c3.592,9.458,11.123,16.988,20.58,20.581C343.764,243.71,336.232,251.241,332.641,260.699z
	 M363.357,242.52c-1.17,15.081-13.234,27.146-28.314,28.315C336.213,255.754,348.276,243.69,363.357,242.52z M353.221,306.358
	c-9.457,3.593-16.988,11.123-20.58,20.581c-3.594-9.458-11.124-16.988-20.582-20.581c9.458-3.593,16.988-11.123,20.582-20.582
	C336.232,295.235,343.764,302.765,353.221,306.358z M301.922,303.956c1.17-15.082,13.234-27.146,28.316-28.315
	C329.068,290.721,317.003,302.786,301.922,303.956z M330.238,337.075c-15.082-1.17-27.146-13.234-28.316-28.315
	C317.003,309.93,329.068,321.994,330.238,337.075z M320.102,339.478c-9.458,3.593-16.989,11.123-20.582,20.582
	c-3.593-9.458-11.123-16.989-20.582-20.582c9.458-3.593,16.989-11.123,20.582-20.581
	C303.113,328.354,310.643,335.885,320.102,339.478z M268.802,275.64c15.081,1.17,27.146,13.234,28.315,28.315
	C282.037,302.786,269.972,290.721,268.802,275.64z M268.802,337.075c1.17-15.081,13.234-27.145,28.315-28.315
	C295.948,323.841,283.883,335.905,268.802,337.075z M297.118,370.195c-15.081-1.17-27.146-13.234-28.315-28.315
	C283.883,343.05,295.948,355.114,297.118,370.195z M286.981,372.598c-9.458,3.593-16.989,11.123-20.582,20.582
	c-3.593-9.459-11.123-16.989-20.581-20.582c9.458-3.593,16.988-11.123,20.581-20.581
	C269.993,361.475,277.523,369.005,286.981,372.598z M235.683,370.195c1.169-15.081,13.234-27.146,28.315-28.315
	C262.828,356.961,250.764,369.025,235.683,370.195z M263.998,403.316c-15.081-1.17-27.146-13.234-28.315-28.316
	C250.764,376.17,262.828,388.234,263.998,403.316z M235.683,436.436c1.169-15.081,13.233-27.145,28.314-28.315
	C262.828,423.201,250.764,435.266,235.683,436.436z M263.997,469.555c-15.081-1.168-27.145-13.234-28.314-28.314
	C250.764,442.41,262.828,454.475,263.997,469.555z M266.4,484.496c3.593,9.459,11.123,16.988,20.582,20.582
	c-9.458,3.594-16.989,11.123-20.582,20.582c-3.593-9.459-11.123-16.988-20.581-20.582
	C255.277,501.484,262.807,493.955,266.4,484.496z M235.683,502.676c1.169-15.08,13.233-27.145,28.314-28.314
	C262.828,489.441,250.764,501.506,235.683,502.676z M297.117,507.48c-1.169,15.08-13.234,27.146-28.314,28.314
	C269.972,520.715,282.037,508.65,297.117,507.48z M268.803,474.361c15.081,1.17,27.145,13.234,28.314,28.314
	C282.037,501.506,269.972,489.441,268.803,474.361z M278.938,471.959c9.458-3.594,16.989-11.123,20.582-20.582
	c3.593,9.459,11.123,16.988,20.582,20.582c-9.458,3.592-16.989,11.121-20.582,20.58C295.927,483.08,288.397,475.551,278.938,471.959
	z M330.236,474.361c-1.168,15.08-13.233,27.145-28.313,28.314C303.092,487.596,315.156,475.531,330.236,474.361z M330.236,535.795
	c-15.08-1.168-27.144-13.234-28.313-28.314C317.003,508.65,329.068,520.715,330.236,535.795z M332.641,550.736
	c3.592,9.459,11.123,16.988,20.58,20.582c-9.457,3.594-16.988,11.123-20.58,20.582c-3.594-9.459-11.124-16.988-20.582-20.582
	C321.517,567.725,329.047,560.195,332.641,550.736z M301.923,568.916c1.169-15.08,13.233-27.145,28.313-28.314
	C329.068,555.682,317.003,567.746,301.923,568.916z M312.059,505.078c9.458-3.594,16.988-11.123,20.582-20.582
	c3.592,9.459,11.123,16.988,20.58,20.582c-9.457,3.594-16.988,11.123-20.58,20.582C329.047,516.201,321.517,508.672,312.059,505.078
	z M363.357,507.48c-1.17,15.08-13.234,27.146-28.314,28.314C336.213,520.715,348.276,508.65,363.357,507.48z M335.043,474.361
	c15.08,1.17,27.145,13.234,28.314,28.314C348.276,501.506,336.213,489.441,335.043,474.361z M345.179,471.959
	c9.458-3.594,16.988-11.123,20.581-20.582c3.593,9.459,11.123,16.988,20.582,20.582c-9.459,3.592-16.989,11.121-20.582,20.58
	C362.167,483.08,354.637,475.551,345.179,471.959z M396.477,474.361c-1.169,15.08-13.232,27.145-28.313,28.314
	C369.332,487.596,381.396,475.531,396.477,474.361z M396.477,535.795c-15.08-1.168-27.145-13.234-28.313-28.314
	C383.244,508.65,395.308,520.715,396.477,535.795z M398.88,550.736c3.593,9.459,11.123,16.988,20.581,20.582
	c-9.458,3.594-16.988,11.123-20.581,20.582c-3.593-9.459-11.123-16.988-20.581-20.582
	C387.757,567.725,395.287,560.195,398.88,550.736z M368.163,568.916c1.169-15.08,13.233-27.145,28.313-28.314
	C395.308,555.682,383.244,567.746,368.163,568.916z M378.299,505.078c9.458-3.594,16.988-11.123,20.581-20.582
	c3.593,9.459,11.123,16.988,20.581,20.582c-9.458,3.594-16.988,11.123-20.581,20.582
	C395.287,516.201,387.757,508.672,378.299,505.078z M429.598,507.48c-1.17,15.08-13.234,27.146-28.314,28.314
	C402.452,520.715,414.517,508.65,429.598,507.48z M401.283,474.361c15.08,1.17,27.145,13.234,28.314,28.314
	C414.517,501.506,402.452,489.441,401.283,474.361z M411.419,471.959c9.458-3.594,16.988-11.123,20.581-20.582
	c3.593,9.459,11.123,16.988,20.582,20.582c-9.459,3.592-16.989,11.121-20.582,20.58C428.407,483.08,420.877,475.551,411.419,471.959
	z M462.718,474.361c-1.17,15.08-13.234,27.145-28.315,28.314C435.572,487.596,447.637,475.531,462.718,474.361z M462.718,535.795
	c-15.081-1.168-27.146-13.234-28.315-28.314C449.483,508.65,461.548,520.715,462.718,535.795z M465.12,550.736
	c3.593,9.459,11.123,16.988,20.581,20.582c-9.458,3.594-16.988,11.123-20.581,20.582c-3.593-9.459-11.123-16.988-20.581-20.582
	C453.997,567.725,461.527,560.195,465.12,550.736z M434.402,568.916c1.17-15.08,13.234-27.145,28.315-28.314
	C461.548,555.682,449.483,567.746,434.402,568.916z M444.539,505.078c9.458-3.594,16.988-11.123,20.581-20.582
	c3.593,9.459,11.123,16.988,20.581,20.582c-9.458,3.594-16.988,11.123-20.581,20.582
	C461.527,516.201,453.997,508.672,444.539,505.078z M495.837,507.48c-1.169,15.08-13.234,27.146-28.314,28.314
	C468.692,520.715,480.757,508.65,495.837,507.48z M467.522,474.361c15.08,1.17,27.146,13.234,28.314,28.314
	C480.757,501.506,468.692,489.441,467.522,474.361z M477.658,471.959c9.458-3.594,16.988-11.125,20.582-20.582
	c3.593,9.457,11.123,16.988,20.581,20.582c-9.458,3.592-16.988,11.123-20.581,20.58
	C494.646,483.082,487.116,475.551,477.658,471.959z M528.957,474.361c-1.169,15.08-13.234,27.145-28.314,28.314
	C501.813,487.596,513.877,475.531,528.957,474.361z M528.957,535.795c-15.08-1.168-27.145-13.234-28.314-28.314
	C515.723,508.65,527.788,520.715,528.957,535.795z M531.36,550.736c3.593,9.459,11.123,16.988,20.581,20.582
	c-9.458,3.594-16.988,11.123-20.581,20.582c-3.594-9.459-11.124-16.988-20.582-20.582
	C520.236,567.725,527.767,560.195,531.36,550.736z M500.643,568.916c1.17-15.08,13.234-27.145,28.314-28.314
	C527.788,555.682,515.723,567.746,500.643,568.916z M510.778,505.078c9.458-3.594,16.988-11.123,20.582-20.582
	c3.593,9.459,11.123,16.988,20.581,20.582c-9.458,3.594-16.988,11.123-20.581,20.582
	C527.767,516.201,520.236,508.672,510.778,505.078z M562.077,507.48c-1.169,15.08-13.234,27.146-28.314,28.314
	C534.933,520.715,546.997,508.65,562.077,507.48z M533.763,474.361c15.08,1.17,27.146,13.234,28.314,28.314
	C546.997,501.506,534.933,489.441,533.763,474.361z M543.898,471.959c9.458-3.594,16.988-11.125,20.582-20.582
	c3.593,9.457,11.123,16.988,20.581,20.582c-9.458,3.592-16.988,11.123-20.581,20.58
	C560.887,483.082,553.356,475.551,543.898,471.959z M595.197,535.795c-15.08-1.168-27.145-13.234-28.314-28.314
	C581.963,508.65,594.027,520.715,595.197,535.795z M595.197,474.361c-1.17,15.08-13.234,27.145-28.314,28.314
	C568.053,487.596,580.117,475.531,595.197,474.361z M566.883,441.24c15.08,1.17,27.145,13.234,28.314,28.314
	C580.117,468.387,568.053,456.32,566.883,441.24z M577.019,438.838c9.458-3.594,16.988-11.124,20.581-20.582
	c3.594,9.458,11.124,16.988,20.582,20.582c-9.458,3.594-16.988,11.123-20.582,20.582
	C594.007,449.961,586.477,442.432,577.019,438.838z M628.317,441.24c-1.17,15.08-13.234,27.146-28.314,28.314
	C601.172,454.475,613.237,442.41,628.317,441.24z M600.003,408.121c15.08,1.17,27.145,13.234,28.314,28.315
	C613.237,435.266,601.172,423.201,600.003,408.121z M628.317,375.001c-1.17,15.081-13.234,27.145-28.314,28.314
	C601.172,388.234,613.237,376.17,628.317,375.001z M600.003,341.881c15.08,1.169,27.145,13.233,28.314,28.314
	C613.237,369.025,601.172,356.961,600.003,341.881z M628.317,308.761c-1.17,15.081-13.234,27.145-28.314,28.314
	C601.172,321.994,613.237,309.93,628.317,308.761z M600.003,275.641c15.08,1.169,27.145,13.233,28.314,28.314
	C613.237,302.786,601.172,290.721,600.003,275.641z M597.6,260.699c-3.593-9.458-11.122-16.989-20.581-20.582
	c9.459-3.593,16.988-11.123,20.581-20.581c3.594,9.458,11.123,16.988,20.582,20.581C608.723,243.71,601.193,251.241,597.6,260.699z
	 M628.317,242.521c-1.17,15.081-13.234,27.145-28.314,28.314C601.172,255.754,613.237,243.69,628.317,242.521z M566.883,237.715
	c1.17-15.081,13.234-27.145,28.314-28.314C594.027,224.481,581.963,236.545,566.883,237.715z M595.197,270.835
	c-15.08-1.169-27.145-13.234-28.314-28.314C581.963,243.69,594.027,255.754,595.197,270.835z M585.062,273.238
	c-9.459,3.593-16.988,11.123-20.581,20.582c-3.594-9.458-11.123-16.989-20.582-20.582c9.459-3.593,16.988-11.123,20.582-20.582
	C568.073,262.115,575.603,269.645,585.062,273.238z M533.763,209.401c15.08,1.169,27.146,13.233,28.314,28.314
	C546.997,236.545,534.933,224.481,533.763,209.401z M500.643,237.715c1.17-15.081,13.234-27.145,28.314-28.314
	C527.788,224.481,515.723,236.545,500.643,237.715z M528.957,270.835c-15.08-1.169-27.145-13.234-28.314-28.314
	C515.723,243.69,527.788,255.754,528.957,270.835z M518.821,273.238c-9.458,3.593-16.988,11.123-20.581,20.582
	c-3.594-9.458-11.123-16.989-20.582-20.582c9.459-3.593,16.988-11.123,20.582-20.582
	C501.833,262.115,509.363,269.645,518.821,273.238z M467.522,209.401c15.08,1.169,27.146,13.233,28.314,28.314
	C480.757,236.545,468.692,224.481,467.522,209.401z M434.402,237.715c1.17-15.081,13.234-27.146,28.315-28.315
	C461.548,224.481,449.483,236.545,434.402,237.715z M462.718,270.835c-15.081-1.17-27.146-13.234-28.315-28.315
	C449.483,243.69,461.548,255.754,462.718,270.835z M452.582,273.238c-9.459,3.593-16.989,11.123-20.582,20.582
	c-3.593-9.458-11.123-16.989-20.581-20.582c9.458-3.593,16.988-11.123,20.581-20.582
	C435.593,262.115,443.123,269.645,452.582,273.238z M401.282,209.4c15.081,1.169,27.146,13.234,28.315,28.315
	C414.517,236.545,402.452,224.481,401.282,209.4z M368.162,237.715c1.17-15.081,13.234-27.146,28.315-28.315
	C395.308,224.481,383.244,236.545,368.162,237.715z M396.478,270.835c-15.081-1.17-27.146-13.234-28.315-28.315
	C383.244,243.69,395.308,255.754,396.478,270.835z M386.342,273.238c-9.459,3.593-16.989,11.123-20.582,20.582
	c-3.593-9.458-11.123-16.989-20.581-20.582c9.458-3.593,16.988-11.123,20.581-20.582
	C369.353,262.115,376.883,269.645,386.342,273.238z M335.043,209.4c15.08,1.169,27.145,13.234,28.314,28.315
	C348.276,236.545,336.213,224.481,335.043,209.4z M301.922,237.715c1.17-15.081,13.234-27.146,28.316-28.315
	C329.068,224.481,317.003,236.545,301.922,237.715z M330.238,270.835c-15.082-1.17-27.146-13.234-28.316-28.315
	C317.003,243.69,329.068,255.754,330.238,270.835z M320.102,273.238c-9.458,3.593-16.989,11.123-20.582,20.582
	c-3.593-9.458-11.123-16.989-20.582-20.582c9.458-3.593,16.989-11.123,20.582-20.582
	C303.113,262.115,310.643,269.645,320.102,273.238z M268.802,270.835c1.17-15.081,13.234-27.146,28.315-28.315
	C295.948,257.601,283.883,269.666,268.802,270.835z M268.802,209.4c15.081,1.169,27.146,13.234,28.315,28.315
	C282.037,236.545,269.972,224.481,268.802,209.4z M286.981,240.118c-9.458,3.593-16.989,11.123-20.582,20.582
	c-3.593-9.458-11.123-16.989-20.581-20.582c9.458-3.593,16.988-11.123,20.581-20.581
	C269.993,228.995,277.523,236.525,286.981,240.118z M286.981,306.358c-9.458,3.593-16.989,11.123-20.582,20.581
	c-3.593-9.458-11.123-16.988-20.581-20.581c9.458-3.593,16.988-11.123,20.581-20.582
	C269.993,295.235,277.523,302.765,286.981,306.358z M235.683,303.956c1.169-15.082,13.234-27.146,28.315-28.315
	C262.828,290.721,250.764,302.786,235.683,303.956z M263.998,337.075c-15.081-1.17-27.146-13.234-28.315-28.315
	C250.764,309.93,262.828,321.994,263.998,337.075z M253.861,339.478c-9.462,3.594-16.992,11.132-20.582,20.594v-41.188
	C236.869,328.346,244.399,335.884,253.861,339.478z M253.861,405.718c-9.462,3.594-16.992,11.131-20.582,20.594v-41.188
	C236.869,394.585,244.399,402.124,253.861,405.718z M253.861,471.959c-9.462,3.594-16.992,11.131-20.582,20.594v-41.188
	C236.869,460.826,244.399,468.363,253.861,471.959z M263.997,535.795c-15.081-1.168-27.145-13.234-28.314-28.314
	C250.764,508.65,262.828,520.715,263.997,535.795z M266.4,550.736c3.593,9.459,11.123,16.988,20.582,20.582
	c-9.458,3.594-16.989,11.123-20.582,20.582c-3.593-9.459-11.123-16.988-20.581-20.582
	C255.277,567.725,262.807,560.195,266.4,550.736z M235.683,568.916c1.169-15.08,13.233-27.145,28.314-28.314
	C262.828,555.682,250.764,567.746,235.683,568.916z M297.117,573.721c-1.169,15.08-13.234,27.145-28.314,28.314
	C269.972,586.955,282.037,574.891,297.117,573.721z M268.803,540.602c15.081,1.17,27.145,13.234,28.314,28.314
	C282.037,567.746,269.972,555.682,268.803,540.602z M278.938,538.199c9.458-3.594,16.989-11.123,20.582-20.582
	c3.593,9.459,11.123,16.988,20.582,20.582c-9.458,3.592-16.989,11.121-20.582,20.58C295.927,549.32,288.397,541.791,278.938,538.199
	z M330.236,602.035c-15.08-1.17-27.144-13.234-28.313-28.314C317.003,574.891,329.068,586.955,330.236,602.035z M363.357,573.721
	c-1.17,15.08-13.234,27.145-28.314,28.314C336.213,586.955,348.276,574.891,363.357,573.721z M335.043,540.602
	c15.08,1.17,27.145,13.234,28.314,28.314C348.276,567.746,336.213,555.682,335.043,540.602z M345.179,538.199
	c9.458-3.594,16.988-11.123,20.581-20.582c3.593,9.459,11.123,16.988,20.582,20.582c-9.459,3.592-16.989,11.121-20.582,20.58
	C362.167,549.32,354.637,541.791,345.179,538.199z M396.477,602.035c-15.08-1.17-27.145-13.234-28.313-28.314
	C383.244,574.891,395.308,586.955,396.477,602.035z M429.598,573.721c-1.17,15.08-13.234,27.145-28.314,28.314
	C402.452,586.955,414.517,574.891,429.598,573.721z M401.283,540.602c15.08,1.17,27.145,13.234,28.314,28.314
	C414.517,567.746,402.452,555.682,401.283,540.602z M411.419,538.199c9.458-3.594,16.988-11.123,20.581-20.582
	c3.593,9.459,11.123,16.988,20.582,20.582c-9.459,3.592-16.989,11.121-20.582,20.58C428.407,549.32,420.877,541.791,411.419,538.199
	z M462.718,602.035c-15.081-1.17-27.146-13.234-28.315-28.314C449.483,574.891,461.548,586.955,462.718,602.035z M495.837,573.721
	c-1.169,15.08-13.234,27.145-28.314,28.314C468.692,586.955,480.757,574.891,495.837,573.721z M467.522,540.602
	c15.08,1.17,27.146,13.234,28.314,28.314C480.757,567.746,468.692,555.682,467.522,540.602z M477.658,538.199
	c9.458-3.594,16.988-11.125,20.582-20.582c3.593,9.457,11.123,16.988,20.581,20.582c-9.458,3.592-16.988,11.123-20.581,20.58
	C494.646,549.322,487.116,541.791,477.658,538.199z M528.957,602.035c-15.08-1.17-27.145-13.234-28.314-28.314
	C515.723,574.891,527.788,586.955,528.957,602.035z M562.077,573.721c-1.169,15.08-13.234,27.145-28.314,28.314
	C534.933,586.955,546.997,574.891,562.077,573.721z M533.763,540.602c15.08,1.17,27.146,13.234,28.314,28.314
	C546.997,567.746,534.933,555.682,533.763,540.602z M543.898,538.199c9.458-3.594,16.988-11.125,20.582-20.582
	c3.593,9.457,11.123,16.988,20.581,20.582c-9.458,3.592-16.988,11.123-20.581,20.58
	C560.887,549.322,553.356,541.791,543.898,538.199z M595.197,540.602c-1.17,15.08-13.234,27.145-28.314,28.314
	C568.053,553.836,580.117,541.771,595.197,540.602z M595.197,602.035c-15.08-1.17-27.145-13.234-28.314-28.314
	C581.963,574.891,594.027,586.955,595.197,602.035z M577.019,571.318c9.458-3.594,16.988-11.123,20.581-20.582
	c3.594,9.459,11.124,16.988,20.582,20.582c-9.458,3.594-16.988,11.123-20.582,20.582
	C594.007,582.441,586.477,574.912,577.019,571.318z M577.019,505.078c9.458-3.594,16.988-11.123,20.581-20.582
	c3.594,9.459,11.124,16.988,20.582,20.582c-9.458,3.594-16.988,11.123-20.582,20.582
	C594.007,516.201,586.477,508.672,577.019,505.078z M628.317,507.48c-1.17,15.08-13.234,27.146-28.314,28.314
	C601.172,520.715,613.237,508.65,628.317,507.48z M600.003,474.361c15.08,1.17,27.145,13.234,28.314,28.314
	C613.237,501.506,601.172,489.441,600.003,474.361z M610.139,471.959c9.462-3.596,16.992-11.133,20.581-20.594v41.188
	C627.131,483.09,619.601,475.553,610.139,471.959z M610.139,405.718c9.462-3.595,16.992-11.133,20.581-20.594v41.188
	C627.131,416.849,619.601,409.312,610.139,405.718z M610.139,339.478c9.462-3.594,16.992-11.131,20.581-20.594v41.188
	C627.131,350.609,619.601,343.072,610.139,339.478z M610.139,273.238c9.462-3.594,16.992-11.132,20.581-20.594v41.188
	C627.131,284.37,619.601,276.832,610.139,273.238z M600.003,209.401c15.08,1.169,27.145,13.233,28.314,28.314
	C613.237,236.545,601.172,224.481,600.003,209.401z M564.48,227.579c-3.596-9.462-11.132-16.993-20.596-20.582h41.19
	C575.611,210.586,568.075,218.117,564.48,227.579z M498.24,227.579c-3.595-9.462-11.132-16.993-20.595-20.582h41.189
	C509.371,210.586,501.835,218.117,498.24,227.579z M432,227.579c-3.595-9.462-11.132-16.993-20.595-20.582h41.189
	C443.132,210.586,435.595,218.117,432,227.579z M365.76,227.579c-3.595-9.462-11.132-16.993-20.595-20.582h41.19
	C376.893,210.586,369.355,218.117,365.76,227.579z M299.52,227.579c-3.595-9.462-11.132-16.993-20.595-20.582h41.189
	C310.652,210.586,303.115,218.117,299.52,227.579z M235.683,237.715c1.169-15.081,13.234-27.146,28.315-28.315
	C262.828,224.481,250.764,236.545,235.683,237.715z M263.998,270.835c-15.081-1.17-27.146-13.234-28.315-28.315
	C250.764,243.69,262.828,255.754,263.998,270.835z M253.861,273.238c-9.462,3.594-16.992,11.132-20.582,20.594v-41.188
	C236.869,262.106,244.399,269.644,253.861,273.238z M233.28,517.605c3.589,9.461,11.119,16.998,20.582,20.594
	c-9.462,3.594-16.992,11.131-20.582,20.594V517.605z M263.997,602.035c-15.081-1.17-27.145-13.234-28.314-28.314
	C250.764,574.891,262.828,586.955,263.997,602.035z M299.52,583.857c3.593,9.459,11.123,16.988,20.582,20.58h-41.163
	C288.397,600.846,295.927,593.316,299.52,583.857z M365.76,583.857c3.593,9.459,11.123,16.988,20.582,20.58h-41.163
	C354.637,600.846,362.167,593.316,365.76,583.857z M432,583.857c3.593,9.459,11.123,16.988,20.582,20.58h-41.163
	C420.877,600.846,428.407,593.316,432,583.857z M498.24,583.857c3.593,9.457,11.123,16.988,20.581,20.58h-41.163
	C487.116,600.846,494.646,593.314,498.24,583.857z M564.48,583.857c3.593,9.457,11.123,16.988,20.581,20.58h-41.163
	C553.356,600.846,560.887,593.314,564.48,583.857z M628.317,573.721c-1.17,15.08-13.234,27.145-28.314,28.314
	C601.172,586.955,613.237,574.891,628.317,573.721z M600.003,540.602c15.08,1.17,27.145,13.234,28.314,28.314
	C613.237,567.746,601.172,555.682,600.003,540.602z M610.139,538.199c9.462-3.596,16.992-11.133,20.581-20.594v41.188
	C627.131,549.33,619.601,541.793,610.139,538.199z M630.72,227.61c-3.591-9.479-11.133-17.022-20.612-20.613h20.612V227.61z
	 M253.893,206.997c-9.479,3.591-17.021,11.134-20.613,20.612v-20.612H253.893z M233.28,583.844c3.589,9.463,11.119,17,20.582,20.594
	H233.28V583.844z M610.139,604.438c9.462-3.594,16.992-11.131,20.581-20.594v20.594H610.139z"/>
</svg>
